<svg width="16" height="16" viewBox="0 0 16 16" fill="none" xmlns="http://www.w3.org/2000/svg">
<path d="M8.00006 1.07227L11.8451 3.29221L11.8451 7.03127L14.805 8.74002V13.1799L10.96 15.3999L8.00007 13.6903L5.04013 15.3999L1.19507 13.1799V8.74002L4.15407 7.03127L4.155 3.29221L8.00006 1.07227ZM5.04006 8.25204L2.69506 9.60604V12.313L5.04006 13.667L7.11407 12.4683V9.44927L5.04006 8.25204ZM10.9591 8.25204L8.88507 9.44827V12.4693L10.9591 13.667L13.3041 12.313V9.60604L10.9591 8.25204ZM8.00006 2.80404L5.65406 4.15804V6.86604L8.00006 8.21904L10.3451 6.86604V4.15804L8.00006 2.80404Z" fill="white"/>
</svg>
